<svg version="1.1" id="Layer_1" xmlns="http://www.w3.org/2000/svg" xmlns:xlink="http://www.w3.org/1999/xlink" x="0px" y="0px"
	 width="100%" viewBox="0 0 398 405" enable-background="new 0 0 398 405" xml:space="preserve">
<path fill="#FDF9F0" opacity="1.000000" stroke="none" 
	d="
M399.000000,195.000000 
	C399.000000,264.311920 398.972015,333.123871 399.086456,401.935577 
	C399.091919,405.217102 398.623199,406.106140 395.066681,406.102783 
	C265.107269,405.980560 135.147675,405.977997 5.188265,406.109772 
	C1.416154,406.113586 0.913802,405.131531 0.916373,401.690735 
	C1.015092,269.565277 1.014829,137.439728 0.917527,5.314273 
	C0.915004,1.887014 1.397280,0.885360 5.183255,0.889237 
	C135.142654,1.022296 265.102234,1.019308 395.061646,0.897783 
	C398.607910,0.894467 399.093628,1.767014 399.087463,5.059426 
	C398.969177,68.206116 399.000000,131.353088 399.000000,195.000000 
z"/>
<path fill="#1A050A" opacity="1.000000" stroke="none" 
	d="
M110.578720,190.538849 
	C113.125900,191.125061 114.699760,192.565887 116.275146,194.081467 
	C129.784363,207.077637 143.446259,219.918549 156.782135,233.089767 
	C162.112244,238.354034 167.978287,239.688202 175.288513,237.567856 
	C180.600754,232.877884 185.134781,228.081665 189.665756,223.240387 
	C195.078415,217.457062 203.075302,219.543945 206.149078,227.004959 
	C206.594543,228.086243 206.877838,229.212997 207.102921,230.360855 
	C208.470871,237.337372 212.291595,238.671341 217.667862,233.769394 
	C223.447693,228.499451 228.768875,222.744110 234.346497,217.257507 
	C241.703400,210.020645 248.694901,202.404297 256.453125,195.585678 
	C263.024994,189.809708 271.994507,190.726822 276.440277,197.528320 
	C278.888947,201.274536 278.796082,205.371002 277.479797,209.864258 
	C274.881622,212.447083 272.461456,214.694199 269.737793,217.046509 
	C258.733795,222.086761 251.453201,230.782196 244.565689,239.877167 
	C242.570236,242.512192 240.720123,245.254654 238.284515,247.990509 
	C237.690033,248.830185 237.264877,249.354874 236.586380,249.944275 
	C235.519669,250.361191 235.007324,251.059372 234.250778,251.943375 
	C234.097153,252.568146 233.947815,252.825989 233.400757,253.025238 
	C229.754013,254.190247 227.311584,256.556763 225.011108,259.206238 
	C223.828308,260.568451 222.776398,262.107422 221.224854,263.126068 
	C217.921448,265.294861 213.372986,266.933197 212.915405,271.139313 
	C212.265533,277.112854 210.573059,283.249725 212.917969,289.651794 
	C213.093689,292.049927 213.166489,294.093872 213.131378,296.564301 
	C212.982208,298.773987 212.989792,300.557281 213.018433,302.674866 
	C213.179489,307.330536 213.331589,311.652008 213.399506,316.424286 
	C213.140503,317.430786 213.110641,317.981018 213.523560,318.762878 
	C213.776154,319.444336 213.882339,319.883057 213.938110,320.660889 
	C212.977844,324.316437 213.141068,327.330048 216.525986,329.753296 
	C217.525803,331.348663 218.286575,332.692688 219.080353,334.365967 
	C219.735413,335.941406 219.756317,337.276642 219.543854,338.593750 
	C219.097656,341.360168 219.804520,343.135742 222.992859,343.219147 
	C224.000961,343.245544 225.154556,343.791962 225.474915,344.683929 
	C226.652740,347.963348 229.564575,348.042847 232.554108,348.561584 
	C233.198685,348.457153 233.475601,348.553101 233.858002,348.923218 
	C235.193954,350.521210 236.659470,351.449707 238.873199,351.461853 
	C244.856995,352.962677 250.687897,352.052155 256.902283,352.601715 
	C258.838531,351.513275 259.339478,349.990295 259.003510,348.050262 
	C258.677612,346.168549 258.427246,344.223358 259.735321,342.174927 
	C260.224060,340.586670 260.051697,339.400452 259.500885,338.081085 
	C254.132294,325.221161 256.719421,314.248199 267.525513,304.778290 
	C271.721771,305.932617 271.721771,305.932617 273.398987,309.467621 
	C275.411652,308.751038 276.702606,307.528961 275.401031,305.379120 
	C273.893951,302.889832 274.951233,301.392395 276.889557,299.936859 
	C279.168182,298.225769 280.758789,295.830017 282.755585,293.840637 
	C285.896729,290.711243 286.082764,286.860596 286.017639,282.770050 
	C285.988983,280.970490 285.332184,278.277039 287.905212,277.666077 
	C290.153229,277.132233 291.331909,279.320007 292.522247,280.886536 
	C296.340485,285.911499 297.784058,291.954376 299.354584,297.861755 
	C299.985321,300.234161 300.615631,302.278137 302.670868,303.676270 
	C304.027130,304.598938 305.960663,305.375427 305.268646,307.388855 
	C304.508789,309.599701 302.315552,309.066528 300.528839,309.015259 
	C299.872559,308.996460 299.221069,308.790009 298.241333,309.152466 
	C296.598206,308.898407 295.466125,308.704376 294.475952,310.156219 
	C291.944550,313.867798 288.077240,315.853882 283.352783,317.918976 
	C289.681610,320.621338 293.983551,324.580353 295.485901,330.960602 
	C297.042847,337.572540 294.800812,343.028656 289.095673,348.629791 
	C295.487183,348.629791 300.566101,348.602295 305.644531,348.641083 
	C308.298492,348.661346 311.082642,348.436707 312.664886,351.330933 
	C313.486481,352.833801 314.964630,352.406830 316.236786,352.421631 
	C320.734985,352.473907 325.236938,352.365967 329.731873,352.502655 
	C336.463165,352.707306 341.089355,357.054016 340.853333,362.764954 
	C340.633881,368.074829 336.180389,371.604919 329.618439,371.606689 
	C237.312057,371.631653 145.005676,371.642151 52.699306,371.692596 
	C48.275063,371.695007 44.297009,370.906342 42.147297,366.588318 
	C40.451412,363.181854 40.939850,359.777527 43.149101,356.678986 
	C45.534626,353.333252 49.022270,352.630463 52.851925,352.637482 
	C75.511513,352.679047 98.171165,352.685150 120.830795,352.703613 
	C123.496681,352.705780 126.184723,352.487366 128.825012,352.749146 
	C153.799026,355.225586 168.500549,334.696228 169.574173,314.949951 
	C170.233688,302.819977 169.829147,290.631866 169.888550,278.469788 
	C169.905060,275.088318 168.380539,272.244446 166.065491,270.048126 
	C155.074554,259.620972 143.962524,249.321365 132.865982,239.006027 
	C132.275146,238.456802 131.432648,238.178284 130.371246,237.636963 
	C127.316460,236.180084 125.701820,233.607880 123.235611,231.495972 
	C122.830391,231.116333 122.671761,230.962494 122.282776,230.573853 
	C121.047462,229.232178 120.028915,228.138229 118.744965,226.878510 
	C118.386841,226.528229 118.246887,226.388672 117.899811,226.045624 
	C117.412483,225.585648 117.121666,225.341873 116.576385,224.965729 
	C116.173279,224.716476 116.011673,224.615158 115.615936,224.345535 
	C115.076462,223.929504 114.782684,223.668671 114.279724,223.184875 
	C113.774872,222.665283 113.502861,222.345840 113.039528,221.756607 
	C109.580276,217.613953 106.114235,213.943634 101.779572,210.642883 
	C100.960487,209.906998 100.531776,209.313278 99.999374,208.336258 
	C98.060600,203.233871 98.233284,198.637909 101.240555,193.965393 
	C101.607574,193.474747 101.767014,193.290054 102.196106,192.862427 
	C103.041428,192.193695 103.673607,191.863007 104.610130,191.360733 
	C105.539795,190.873230 106.183525,190.600586 107.170929,190.237823 
	C108.452591,189.931931 109.383331,189.922302 110.578720,190.538849 
z"/>
<path fill="#E7592B" opacity="1.000000" stroke="none" 
	d="
M277.699554,210.248825 
	C277.216888,208.557434 276.991028,206.907822 277.073090,205.273697 
	C277.336273,200.034698 275.164001,196.197693 270.429962,194.063568 
	C265.472595,191.828735 261.018066,193.014771 257.219269,196.786835 
	C245.778412,208.147263 234.367554,219.537964 222.908325,230.879791 
	C220.787567,232.978821 218.700272,235.212616 216.240921,236.847916 
	C210.866013,240.421860 206.129593,237.900726 205.714035,231.545990 
	C205.426132,227.143158 204.037186,223.446075 199.353485,221.835434 
	C194.528931,220.176346 191.462463,222.642883 188.656387,226.050690 
	C185.079651,230.394424 181.805603,235.089493 175.987579,237.324127 
	C174.454437,232.161591 175.474426,226.968094 175.135391,221.135269 
	C175.629257,219.196243 176.757797,218.464310 177.873322,217.294586 
	C178.244934,216.909821 178.398315,216.761017 178.793457,216.403625 
	C179.689224,215.668060 180.431137,215.235413 181.075394,214.228760 
	C181.425949,213.817352 181.574814,213.658722 181.970154,213.283707 
	C185.070496,210.976288 187.529205,208.482971 189.908051,205.433960 
	C190.254410,204.991730 190.402893,204.822449 190.800110,204.425003 
	C192.716049,203.082275 194.156189,201.721710 195.595367,199.899811 
	C195.904068,199.467392 196.034103,199.301575 196.375198,198.906372 
	C197.023621,198.257584 197.488617,197.867432 198.103256,197.205627 
	C198.433167,196.836670 198.567200,196.690430 198.910645,196.332047 
	C199.549530,195.696960 199.992584,195.288040 200.648376,194.651901 
	C201.366028,194.037567 201.884430,193.670944 202.612640,193.036331 
	C222.909409,174.342545 242.417847,155.312195 261.727722,135.604797 
	C262.167053,134.954102 262.441650,134.602417 262.947418,134.015076 
	C263.309601,133.606110 263.458099,133.446564 264.072754,132.831177 
	C264.701141,132.230713 264.863434,132.086090 265.277832,131.733490 
	C265.703674,131.393265 265.877441,131.261002 266.318970,130.939850 
	C268.975311,129.145950 270.793091,126.927101 273.058411,124.703842 
	C274.571808,123.249916 275.821045,121.997925 277.409180,120.626900 
	C278.545288,119.791565 279.454315,119.194801 280.210449,117.955902 
	C280.948395,116.963028 281.594055,116.337234 282.533813,115.522705 
	C284.713348,114.050499 286.447205,112.602425 287.936005,110.395714 
	C288.291931,109.941399 288.444519,109.767746 288.852539,109.360428 
	C292.941193,106.245209 296.111633,102.678558 299.555908,98.924225 
	C300.128632,98.108368 300.558136,97.606300 301.244873,96.900208 
	C301.811249,96.412727 302.153778,96.162163 302.755890,95.739014 
	C303.167511,95.423691 303.329620,95.294800 303.725677,94.962166 
	C304.750793,94.067139 305.403015,93.252876 306.252625,92.173889 
	C306.656342,91.803665 306.838562,91.676788 307.343079,91.456520 
	C308.123718,91.345680 308.547974,91.461052 309.238525,91.853943 
	C314.538269,97.777115 317.081940,104.861122 319.660522,111.807327 
	C331.808746,144.531830 331.800262,177.442825 320.467712,210.385086 
	C317.768097,218.232590 317.662201,218.175278 310.720215,213.656845 
	C300.427490,206.957504 289.401642,207.242874 277.699554,210.248825 
z"/>
<path fill="#17040A" opacity="1.000000" stroke="none" 
	d="
M283.224121,115.757095 
	C282.498108,116.573036 282.004303,117.155624 281.249512,117.862328 
	C280.151520,118.861694 279.278168,119.700653 278.200134,120.762482 
	C276.803802,122.195572 275.631470,123.425072 274.170715,124.793488 
	C270.980591,126.671288 268.751709,129.150162 266.369751,131.924377 
	C266.218933,132.222244 266.081726,132.225281 266.146057,132.201416 
	C265.847504,132.237228 265.552643,132.414551 265.251495,132.953217 
	C265.186005,133.212234 265.033844,133.079865 265.123230,133.126572 
	C264.832825,133.248154 264.528290,133.438354 264.236450,134.032867 
	C264.071991,134.588242 263.905182,134.816452 263.467896,135.081421 
	C253.878113,143.166855 245.623428,152.356232 236.637070,160.745255 
	C226.358246,170.340820 217.129730,181.018829 206.232620,189.950455 
	C205.051544,190.918488 204.023270,191.964661 203.179825,193.647797 
	C202.609146,194.302872 202.268311,194.687286 201.678680,195.158905 
	C200.538422,195.395065 200.036163,196.072281 199.381531,196.973938 
	C199.280014,197.267395 199.027756,197.013672 199.146667,197.147217 
	C198.430527,197.459366 197.976807,198.124832 197.366333,198.982605 
	C197.279800,199.264557 197.007172,199.041580 197.136780,199.161041 
	C194.828934,200.501190 193.108490,202.495148 191.350494,204.910522 
	C191.192291,205.201859 191.003571,205.004272 191.101990,205.098999 
	C187.927689,207.584702 185.417831,210.776199 182.232056,213.744965 
	C181.991302,213.978867 182.001221,214.001221 181.990051,213.996246 
	C181.139526,214.866745 180.264328,215.707169 179.237335,216.822342 
	C179.039780,217.052353 179.004150,216.997650 179.028488,217.019836 
	C177.827682,218.044327 176.078094,218.440735 175.244324,220.418030 
	C175.024994,220.687454 174.879593,220.904404 174.961060,221.006866 
	C172.943420,221.306870 171.722351,219.893295 170.401352,218.619324 
	C146.430237,195.501709 122.493782,172.347748 98.419518,149.337997 
	C95.647522,146.688583 95.086906,145.050766 98.225121,142.309082 
	C102.353722,138.702133 106.182419,134.723175 109.891769,130.676559 
	C111.910927,128.473816 113.222443,128.337997 115.424675,130.507187 
	C133.223923,148.039413 151.225296,165.367630 168.914429,183.009338 
	C171.939957,186.026779 173.174210,185.917404 176.156815,182.950699 
	C211.704102,147.592926 247.433563,112.418266 283.116241,77.196609 
	C283.234558,77.079803 283.366852,76.977112 283.492737,76.867966 
	C286.363495,74.378532 288.575256,69.144600 291.653168,69.461128 
	C295.330627,69.839302 297.556885,74.852455 300.136078,78.066917 
	C303.255585,81.954865 305.991852,86.150337 308.899567,90.553711 
	C308.594757,91.508453 307.891724,91.452644 307.392822,92.071701 
	C307.376801,92.371178 307.254120,92.366867 307.300842,92.406647 
	C305.653412,92.741066 305.343903,94.406525 304.196045,95.681503 
	C304.002106,95.929047 303.997894,96.002541 303.961121,96.000595 
	C303.503876,96.462814 302.827362,96.461563 302.279449,97.142242 
	C301.871490,97.825935 301.551941,98.222275 301.027679,98.772575 
	C296.468414,101.859299 293.203247,105.949936 289.309662,109.856438 
	C289.117218,110.135681 288.993225,110.052193 289.062408,110.080231 
	C287.188599,111.859711 284.938110,113.288925 283.224121,115.757095 
z"/>
<path fill="#E7582B" opacity="1.000000" stroke="none" 
	d="
M100.587189,207.645767 
	C101.199379,208.323349 101.596375,208.728058 102.116028,209.389389 
	C105.545235,214.166046 109.819603,217.749756 114.144043,221.708389 
	C114.738022,221.824707 114.935349,221.944412 115.109756,222.342606 
	C115.184349,222.952209 115.344063,223.331955 115.952713,223.748627 
	C116.255348,223.850327 116.104546,223.836945 116.134415,223.767395 
	C116.321495,224.383499 116.894745,224.487488 117.674164,224.797638 
	C117.898727,224.978073 117.996696,224.989532 117.991516,225.038574 
	C119.108109,226.957626 120.232964,228.824570 122.726990,229.785461 
	C122.993431,229.973419 123.013733,229.984940 123.020729,229.994293 
	C125.439003,235.041595 125.044884,235.983948 119.486977,236.430374 
	C106.820435,237.447800 98.336090,244.634613 91.910629,254.845566 
	C90.689339,256.786346 89.361610,257.202820 87.021317,256.489349 
	C86.649101,256.356873 87.005333,256.174713 86.821518,256.253052 
	C84.698494,252.439346 81.636696,249.320816 79.316109,245.687103 
	C66.940468,226.308411 58.929756,205.397049 55.810780,182.495529 
	C53.174686,163.139618 54.218552,144.121552 59.061832,125.298637 
	C60.289482,120.527534 61.419762,115.636879 64.086426,110.937523 
	C67.676880,108.938019 70.924187,106.177162 74.575539,110.085052 
	C75.083389,110.628586 75.800674,110.642738 76.284592,109.981544 
	C80.544556,104.161201 86.577888,106.775177 91.851997,107.130638 
	C94.796097,107.329071 97.671875,107.756882 100.961609,107.370987 
	C103.287796,109.594971 101.164787,110.676971 100.082344,111.842003 
	C95.845207,116.402390 91.220695,120.567375 86.600471,125.080368 
	C86.612671,125.441147 86.507637,125.470314 86.461899,125.499954 
	C85.963852,125.266556 85.577461,125.327393 85.402725,126.087845 
	C85.538025,126.412300 85.470276,126.492393 85.457123,126.543167 
	C84.358040,126.320702 84.024742,127.233192 83.566315,128.141891 
	C83.639961,128.451263 83.536949,128.482925 83.508087,128.528427 
	C81.887825,128.514160 81.794128,130.532700 80.480995,131.115356 
	C80.540062,131.453613 80.453880,131.507797 80.438492,131.556305 
	C76.492798,133.574951 73.876801,136.897491 71.185883,140.628586 
	C70.966545,140.888550 70.850647,141.154495 70.713867,141.202789 
	C66.780106,145.328369 66.583832,149.118011 71.225677,152.973938 
	C78.501419,159.017776 84.608551,166.226898 92.044800,172.487488 
	C92.390182,172.551743 92.310394,172.675461 92.377151,172.644470 
	C92.993828,174.753433 94.873428,175.546310 96.759811,176.794342 
	C97.030441,176.982178 96.999863,177.001099 97.008553,176.985428 
	C99.420471,180.111099 102.720352,182.361588 105.309937,185.320465 
	C106.585754,186.778244 108.394043,187.979172 107.240982,190.657486 
	C106.526535,191.273651 106.041229,191.599152 105.249878,191.922012 
	C104.354050,191.989670 103.835175,192.216995 103.206711,192.838257 
	C103.018326,193.057709 102.997169,193.004242 103.025154,193.010803 
	C98.499794,197.582779 97.837318,201.129868 100.587189,207.645767 
z"/>
<path fill="#1A090C" opacity="1.000000" stroke="none" 
	d="
M259.642517,341.846313 
	C260.138031,344.529358 259.754150,347.152893 260.706848,349.746063 
	C261.543152,352.022400 260.487946,353.222900 257.683685,352.864655 
	C256.000061,349.956116 253.015717,349.448639 250.633331,348.157806 
	C237.010788,340.776825 229.017151,324.304382 232.025803,309.479126 
	C233.803757,300.718201 238.734879,294.499207 246.978271,290.849609 
	C251.672180,288.771484 256.588867,286.856110 258.797882,281.546600 
	C260.496765,277.463196 259.374023,273.092987 256.029846,270.958435 
	C252.418549,268.653381 249.189529,269.443878 245.972244,273.671875 
	C244.397888,275.740845 242.594223,276.270264 240.340775,275.189453 
	C237.685425,273.915863 237.099777,271.658783 237.577209,268.931549 
	C238.840469,261.715576 247.890778,256.087433 256.142639,257.413025 
	C268.341034,259.372589 276.410400,272.320190 273.492157,284.893036 
	C271.450317,293.690094 265.153320,298.951447 258.497833,304.077637 
	C250.146896,310.509735 247.110291,319.621521 249.845352,329.261871 
	C251.382889,334.681305 255.342148,338.223389 259.642517,341.846313 
z"/>
<path fill="#5B882C" opacity="1.000000" stroke="none" 
	d="
M138.209137,266.991119 
	C135.582321,277.683105 129.068451,283.615387 118.618118,285.321991 
	C113.997559,286.076538 109.348099,285.818085 104.709038,285.977966 
	C102.894951,286.040497 101.910027,285.441010 101.926720,283.465454 
	C101.987526,276.270264 102.503120,269.133606 106.348167,262.807770 
	C112.019554,253.477341 125.738869,249.260223 136.415359,253.278320 
	C138.123688,253.921234 138.702606,254.984421 138.654495,256.656281 
	C138.559280,259.965302 139.064514,263.295929 138.209137,266.991119 
z"/>
<path fill="#16080A" opacity="1.000000" stroke="none" 
	d="
M298.180634,309.534485 
	C298.231110,306.258667 300.172241,307.896149 301.613220,307.913055 
	C302.661560,307.925415 304.212799,308.520996 304.441101,306.826660 
	C304.597809,305.663574 303.445953,305.182343 302.429504,305.076172 
	C299.858185,304.807678 299.523132,302.890259 298.948151,300.898102 
	C296.938873,293.936493 295.435883,286.760498 290.915649,280.786133 
	C290.109741,279.720947 289.366577,278.690430 288.040466,278.242615 
	C285.958771,282.839752 289.256134,288.077423 285.785706,292.217010 
	C283.133667,295.380371 280.666412,298.715942 277.379700,301.302979 
	C276.618958,301.901764 275.002472,301.864349 275.798645,303.737976 
	C278.356201,309.756561 278.109894,310.065521 270.018372,311.547272 
	C274.106720,307.625702 270.228088,306.848877 268.038269,304.978882 
	C270.684814,302.145447 273.561218,299.669861 276.340057,297.089264 
	C279.759644,293.913666 281.538269,289.896698 282.150360,285.301788 
	C282.783722,280.547150 282.895050,275.642303 285.515594,271.386414 
	C286.702545,269.458801 285.039154,268.306946 284.521820,266.850159 
	C283.789459,264.787903 282.728394,262.477325 284.996033,260.989258 
	C287.414520,259.402191 288.364075,262.143280 289.739471,263.361053 
	C290.352020,263.903442 290.809875,264.627747 291.305206,265.293854 
	C292.041565,266.284058 293.008240,267.245636 294.190704,266.521057 
	C295.467438,265.738739 294.073395,264.802979 293.806000,263.994446 
	C293.198029,262.155945 292.709229,259.943054 294.524353,259.057373 
	C296.172729,258.253082 297.739044,260.254669 298.201172,261.647858 
	C299.694244,266.148743 303.235382,268.209351 306.999542,270.368896 
	C309.257263,271.664154 311.149658,273.661133 313.047729,275.505829 
	C318.292297,280.602966 318.203125,281.617920 311.976501,285.584839 
	C310.035828,286.821198 307.887787,287.837036 305.705597,288.569214 
	C299.731201,290.573822 299.200378,291.183960 300.467407,298.168365 
	C301.231628,302.381042 304.808594,302.779755 308.226501,302.856445 
	C309.972748,302.895599 311.700928,302.997620 313.496582,302.140594 
	C315.829865,301.027039 317.826843,302.729065 318.557861,304.647766 
	C319.310059,306.622040 316.821350,306.445068 315.713745,307.222015 
	C310.366638,310.972931 304.726410,312.432617 298.180634,309.534485 
z"/>
<path fill="#5B852C" opacity="1.000000" stroke="none" 
	d="
M266.441223,236.364960 
	C271.247345,231.569016 275.261261,226.380737 281.787781,224.212112 
	C290.607971,221.281342 306.301422,226.084106 311.306885,233.395370 
	C312.044556,234.472855 311.823334,235.193268 311.111755,236.009506 
	C298.050873,250.992569 279.537811,253.540268 266.261780,237.144379 
	C266.180054,237.043442 266.250427,236.819366 266.441223,236.364960 
z"/>
<path fill="#DF673D" opacity="1.000000" stroke="none" 
	d="
M65.246452,110.746124 
	C61.533257,120.453339 58.531837,130.032913 57.152103,140.060516 
	C54.632767,158.370483 54.692574,176.682587 59.137432,194.624771 
	C61.370647,203.639404 63.927979,212.590576 68.053154,221.245377 
	C73.459595,232.588364 78.656784,243.843491 86.630630,253.639420 
	C86.975090,254.062561 86.793846,254.913651 86.747589,255.948395 
	C78.942856,248.780853 73.522469,239.618851 68.942177,230.046814 
	C53.092010,196.922516 49.110088,162.284241 57.571026,126.557686 
	C65.034439,95.043228 82.074341,69.611351 108.399002,50.542614 
	C110.404305,49.090038 112.323807,47.519009 114.630203,45.949158 
	C115.128181,46.050926 115.279152,46.206573 115.523117,46.674095 
	C115.606422,47.202595 115.596733,47.419216 115.475548,47.941261 
	C115.009193,48.794369 114.536209,49.229378 113.793724,49.840294 
	C112.864662,50.536999 112.325737,51.169464 111.664383,52.126205 
	C111.189751,52.718899 110.875580,53.019680 110.262604,53.479591 
	C108.614052,54.325390 107.217300,54.950966 105.898193,56.311523 
	C105.330666,56.841537 104.993530,57.131062 104.388901,57.622986 
	C102.128441,59.046211 101.586258,61.483212 99.607056,63.153702 
	C99.172554,63.515728 98.987617,63.646294 98.507645,63.941921 
	C94.751076,65.227478 94.110558,69.225372 91.035828,71.204140 
	C89.492531,73.157852 87.972382,74.717995 86.721260,76.890495 
	C85.330200,78.384026 83.717293,79.086105 82.303879,80.545502 
	C81.701828,81.284294 81.310608,81.785347 80.833710,82.622253 
	C78.751106,87.152214 75.186897,90.505554 73.914734,95.481674 
	C73.487030,96.641510 72.986671,97.380188 72.297638,98.388214 
	C71.606400,99.377182 71.218750,100.148506 70.948532,101.341064 
	C69.310532,104.757652 67.318138,107.577354 65.246452,110.746124 
z"/>
<path fill="#CF6A48" opacity="1.000000" stroke="none" 
	d="
M115.321388,47.195381 
	C115.006424,46.776604 115.000473,46.600353 114.985870,46.159691 
	C130.995056,34.762390 149.063293,28.683735 167.993637,25.202402 
	C199.337906,19.438128 228.845352,25.449942 256.691284,40.873901 
	C255.579727,42.083477 254.477249,42.102505 252.944672,41.829460 
	C238.740707,34.724384 223.990173,30.654776 208.815659,28.223585 
	C195.443176,26.081112 182.130356,26.909014 168.637238,28.744841 
	C152.365433,30.958731 138.204147,38.108398 123.297195,44.817463 
	C120.366417,45.407368 118.549919,48.065006 115.321388,47.195381 
z"/>
<path fill="#CF6A48" opacity="1.000000" stroke="none" 
	d="
M264.371948,69.125198 
	C253.254929,80.654961 242.160400,91.892509 230.903671,102.965134 
	C213.243210,120.336716 195.473251,137.596985 177.160309,154.770477 
	C175.659439,152.577026 176.747726,151.045013 178.078888,149.763428 
	C187.872055,140.335083 197.619461,130.861969 207.228256,121.244087 
	C216.364624,112.099091 225.228455,102.645409 234.721420,93.904205 
	C243.373001,85.937737 251.275513,77.200508 260.265717,69.608253 
	C261.034241,68.959206 261.893127,68.458221 263.294556,68.391487 
	C263.880951,68.538651 264.101349,68.648834 264.371948,69.125198 
z"/>
<path fill="#CF6A48" opacity="1.000000" stroke="none" 
	d="
M86.918106,125.342873 
	C85.632088,123.709961 87.167206,123.213066 88.067947,122.318863 
	C92.644058,117.776024 97.172943,113.185623 101.898926,107.976303 
	C102.298904,106.686150 102.640297,106.092148 103.180923,105.205826 
	C103.797493,104.319588 104.312904,103.821480 105.243134,103.239159 
	C108.682137,102.202942 111.585976,100.458038 115.357803,100.916695 
	C118.117058,102.109367 120.634018,102.993919 123.065819,104.808601 
	C126.344292,107.577744 128.117844,111.262390 131.608490,113.814453 
	C132.099991,114.131508 132.292923,114.265602 132.763412,114.619186 
	C140.234039,123.313171 148.650803,130.538956 156.753860,138.085251 
	C158.318451,139.542358 160.165314,140.854446 159.700836,143.780792 
	C159.445450,144.353806 159.299576,144.564987 158.787781,144.656494 
	C146.325333,133.656158 134.901382,122.080467 123.368767,110.617081 
	C122.309097,109.563766 121.306290,108.445114 120.181091,107.467247 
	C115.081062,103.035004 111.160065,102.984100 106.137634,107.558983 
	C99.757111,113.370949 93.521591,119.342087 86.918106,125.342873 
z"/>
<path fill="#1A090C" opacity="1.000000" stroke="none" 
	d="
M238.429199,248.169861 
	C237.204346,245.098343 240.383286,243.794525 241.531982,241.636353 
	C245.677841,233.847198 252.630524,228.162613 258.663544,221.933334 
	C260.746399,219.782761 264.128632,216.287048 268.999512,217.112976 
	C259.631378,227.870682 249.092697,237.858444 238.429199,248.169861 
z"/>
<path fill="#1A090C" opacity="1.000000" stroke="none" 
	d="
M213.136963,289.618774 
	C209.684113,288.595001 209.711060,285.638733 210.303055,282.936157 
	C210.808273,280.629608 211.337387,278.314972 210.934875,276.074677 
	C209.884277,270.227386 212.819687,266.353577 217.340012,263.838501 
	C221.506699,261.520203 224.530273,258.312592 226.989487,254.492157 
	C228.488190,252.163910 230.514420,253.367905 232.742249,253.044693 
	C228.182510,258.098267 223.315109,263.259735 218.168777,268.126190 
	C214.582031,271.517853 212.581390,275.211182 213.214890,280.308411 
	C213.579132,283.239136 213.262924,286.254364 213.136963,289.618774 
z"/>
<path fill="#DF673D" opacity="1.000000" stroke="none" 
	d="
M86.735733,256.726990 
	C89.096085,256.180511 90.479111,255.405075 91.512001,252.622513 
	C93.016022,248.570740 97.147346,246.208221 100.321678,243.384216 
	C105.796074,238.513992 112.094612,234.813751 119.790810,235.081482 
	C123.435631,235.208282 124.135727,233.847610 123.026047,230.385254 
	C125.714211,231.931229 127.974365,234.293182 130.029327,237.185181 
	C124.482010,237.944626 118.837967,236.716675 113.354286,238.565430 
	C104.526917,241.541489 97.662003,246.907730 92.822098,254.896912 
	C91.468758,257.130890 90.066376,259.772797 86.735733,256.726990 
z"/>
<path fill="#CF6A48" opacity="1.000000" stroke="none" 
	d="
M257.057678,40.937630 
	C264.557861,43.617119 270.541779,48.625839 276.706024,53.349518 
	C279.289551,55.329277 277.938171,57.098560 276.276428,58.686844 
	C272.566162,62.233131 268.782684,65.702835 264.725586,69.347557 
	C264.422180,69.491371 264.186188,69.221138 264.068420,69.085831 
	C262.833649,63.934498 267.278595,62.195179 269.828186,59.591984 
	C273.372406,55.973259 273.444763,56.434364 269.790344,53.077648 
	C266.708252,50.246662 263.316193,47.982250 259.785492,45.835064 
	C258.249207,44.900784 256.529449,44.055115 256.644958,41.535435 
	C256.791962,41.219578 256.969238,41.031746 257.057678,40.937630 
z"/>
<path fill="#CF6A48" opacity="1.000000" stroke="none" 
	d="
M92.297791,172.238617 
	C87.480865,172.476303 85.838554,167.971390 83.020363,165.274918 
	C79.371025,161.783203 75.763062,158.285721 71.797630,155.148178 
	C68.677719,152.679611 66.420418,149.712326 67.039528,145.377518 
	C67.300262,143.551971 67.462440,141.681946 70.167313,141.217255 
	C67.833275,145.528717 68.451050,149.156601 72.220322,152.658920 
	C78.997849,158.956451 85.555733,165.490356 92.297791,172.238617 
z"/>
<path fill="#1A090C" opacity="1.000000" stroke="none" 
	d="
M232.636703,348.219757 
	C231.603378,348.807434 230.321106,349.158264 229.035889,349.497925 
	C226.986786,350.039398 224.960266,350.851440 225.597122,347.121460 
	C225.868469,345.532166 224.169083,343.971191 222.763626,344.266022 
	C215.005386,345.893677 218.653992,340.414215 218.388351,337.437500 
	C218.333969,336.828064 218.762238,336.175568 219.040710,335.119019 
	C222.782776,339.877167 226.905914,344.605713 232.636703,348.219757 
z"/>
<path fill="#CF6A48" opacity="1.000000" stroke="none" 
	d="
M107.404404,190.949860 
	C106.873909,186.093185 102.232475,184.593033 99.870605,181.394333 
	C98.944138,180.139603 96.847588,179.794403 97.005371,177.331909 
	C102.259865,180.668854 106.639343,185.273697 110.839989,190.417023 
	C109.850960,190.802521 108.823952,190.877045 107.404404,190.949860 
z"/>
<path fill="#1A090C" opacity="1.000000" stroke="none" 
	d="
M216.763702,329.638641 
	C212.205231,329.268646 210.935150,326.160126 213.524185,321.091492 
	C214.845901,323.757568 215.804123,326.515137 216.763702,329.638641 
z"/>
<path fill="#CF6A48" opacity="1.000000" stroke="none" 
	d="
M177.029572,155.028656 
	C173.157700,160.192276 173.132538,160.187546 166.621613,152.868027 
	C166.381485,152.343323 166.284103,152.116974 166.508331,151.724152 
	C170.265808,151.501022 172.660629,154.911072 176.507812,154.580902 
	C176.777527,154.778824 176.945526,154.945419 177.029572,155.028656 
z"/>
<path fill="#CF6A48" opacity="1.000000" stroke="none" 
	d="
M71.277618,140.777069 
	C72.066711,136.028717 75.471199,133.268051 80.072311,131.441376 
	C77.478302,134.625076 74.533501,137.645325 71.277618,140.777069 
z"/>
<path fill="#CF6A48" opacity="1.000000" stroke="none" 
	d="
M164.772903,150.694733 
	C162.517517,148.750320 160.635635,146.921722 158.587799,144.814972 
	C158.421860,144.536789 158.720367,144.245728 158.876251,144.107300 
	C160.555222,142.786346 161.639374,143.916183 163.060974,144.912048 
	C164.014572,145.798737 164.631165,146.515015 165.354004,147.609863 
	C165.679520,148.405426 165.737961,148.893723 165.635773,149.765778 
	C165.414520,150.363373 165.280457,150.586975 164.772903,150.694733 
z"/>
<path fill="#1A090C" opacity="1.000000" stroke="none" 
	d="
M238.933319,351.159943 
	C236.588791,353.837250 235.098709,352.538971 234.008911,349.465607 
	C235.558838,349.723175 237.119400,350.349457 238.933319,351.159943 
z"/>
<path fill="#1A090C" opacity="1.000000" stroke="none" 
	d="
M213.141846,302.690247 
	C211.398819,301.313232 211.872040,299.407166 212.749374,297.239471 
	C213.101089,298.784363 213.178711,300.577881 213.141846,302.690247 
z"/>
<path fill="#CF6A48" opacity="1.000000" stroke="none" 
	d="
M96.916382,176.674072 
	C94.459358,177.059799 92.595917,176.197159 92.331024,172.986969 
	C94.313255,173.380508 95.599159,174.825211 96.916382,176.674072 
z"/>
<path fill="#CF6A48" opacity="1.000000" stroke="none" 
	d="
M80.822960,131.343689 
	C80.198006,129.637207 81.394051,128.949799 83.129662,128.487885 
	C83.081581,129.811646 82.134941,130.559479 80.822960,131.343689 
z"/>
<path fill="#1A090C" opacity="1.000000" stroke="none" 
	d="
M234.389221,252.110992 
	C234.094620,251.152832 234.385391,250.287750 235.965134,250.042511 
	C235.787994,250.675262 235.242966,251.341522 234.389221,252.110992 
z"/>
<path fill="#1A090C" opacity="1.000000" stroke="none" 
	d="
M213.745590,318.730438 
	C212.638077,318.727478 211.791931,318.363220 213.059418,317.006256 
	C213.483963,317.401825 213.652603,317.928558 213.745590,318.730438 
z"/>
<path fill="#CF6A48" opacity="1.000000" stroke="none" 
	d="
M83.896255,128.359955 
	C83.123711,127.303368 83.137192,126.417496 85.074020,126.446976 
	C85.013504,127.152184 84.583031,127.710426 83.896255,128.359955 
z"/>
<path fill="#CF6A48" opacity="1.000000" stroke="none" 
	d="
M166.618958,152.422729 
	C165.882507,152.075089 165.286148,151.580490 164.544601,150.832397 
	C164.399399,150.578903 164.704834,150.265930 164.866974,150.119247 
	C166.430008,149.204285 167.156677,149.741104 167.219223,151.587891 
	C167.031860,151.975021 166.759064,152.275787 166.618958,152.422729 
z"/>
<path fill="#4A0F06" opacity="1.000000" stroke="none" 
	d="
M307.735229,92.294708 
	C307.298828,91.655472 307.660614,91.236328 308.602051,90.949211 
	C309.051422,91.058350 309.197662,91.221977 309.439087,91.701225 
	C309.054047,92.083984 308.573883,92.151108 307.735229,92.294708 
z"/>
<path fill="#CF6A48" opacity="1.000000" stroke="none" 
	d="
M85.758118,126.352798 
	C85.634163,126.077454 85.730293,125.742607 86.121292,125.468681 
	C86.406937,125.862633 86.260956,126.117195 85.758118,126.352798 
z"/>
<path fill="#CF6A48" opacity="1.000000" stroke="none" 
	d="
M114.333359,221.494293 
	C108.661346,219.839508 105.320900,215.198181 102.191368,210.013168 
	C106.222183,213.490524 110.205673,217.335022 114.333359,221.494293 
z"/>
<path fill="#CF6A48" opacity="1.000000" stroke="none" 
	d="
M100.754745,207.524841 
	C96.378792,203.626694 97.010590,197.453522 102.687965,193.040268 
	C100.276505,197.390381 98.217461,201.882660 100.754745,207.524841 
z"/>
<path fill="#1A090C" opacity="1.000000" stroke="none" 
	d="
M272.611694,206.817352 
	C270.796204,206.686264 268.404266,207.903091 268.386902,205.370331 
	C268.373901,203.477295 270.543152,202.891022 272.151581,203.180908 
	C274.565338,203.615952 274.380127,205.128052 272.611694,206.817352 
z"/>
<path fill="#1A090C" opacity="1.000000" stroke="none" 
	d="
M236.633163,239.539917 
	C236.927200,241.731018 236.028549,242.245117 234.403198,241.541092 
	C233.613098,241.198868 233.047806,240.419769 233.455032,239.563675 
	C234.218277,237.959106 235.319611,237.930099 236.633163,239.539917 
z"/>
<path fill="#DF673D" opacity="1.000000" stroke="none" 
	d="
M122.861404,229.679474 
	C120.097870,230.069504 118.317863,228.827713 117.998741,225.453339 
	C120.092934,225.940247 121.104980,228.000778 122.861404,229.679474 
z"/>
<path fill="#1A090C" opacity="1.000000" stroke="none" 
	d="
M240.928741,231.012512 
	C240.618790,232.605148 239.958725,233.076981 238.871384,232.098572 
	C238.144058,231.444122 238.129501,230.597427 238.856949,229.934769 
	C239.942383,228.946014 240.601151,229.433685 240.928741,231.012512 
z"/>
<path fill="#16080A" opacity="1.000000" stroke="none" 
	d="
M292.414551,290.599487 
	C292.932709,291.940552 292.666107,292.741211 291.402496,292.767517 
	C290.705261,292.782013 290.204376,292.267365 290.231354,291.574036 
	C290.280273,290.316071 291.080109,290.052582 292.414551,290.599487 
z"/>
<path fill="#CF6A48" opacity="1.000000" stroke="none" 
	d="
M103.310371,193.008545 
	C103.155853,192.147598 103.078308,191.022049 104.766983,191.703918 
	C104.496689,192.266022 104.049553,192.612701 103.310371,193.008545 
z"/>
<path fill="#CF6A48" opacity="1.000000" stroke="none" 
	d="
M117.778778,224.716888 
	C117.369820,224.749649 116.840912,224.521210 116.238144,223.995316 
	C116.662476,223.950470 117.160652,224.203079 117.778778,224.716888 
z"/>
<path fill="#CF6A48" opacity="1.000000" stroke="none" 
	d="
M116.182762,223.552185 
	C115.923523,223.615631 115.591705,223.380936 115.204941,222.831604 
	C115.470055,222.762665 115.790115,223.008347 116.182762,223.552185 
z"/>
<path fill="#480F06" opacity="1.000000" stroke="none" 
	d="
M203.273499,193.827881 
	C202.853195,192.320465 203.340607,190.921051 204.644974,189.980301 
	C214.030685,183.210831 220.626297,173.520081 229.678452,166.305130 
	C234.321045,162.604813 237.656967,157.202637 242.285950,153.202377 
	C246.322983,149.713669 250.545151,146.709229 253.148300,141.398254 
	C254.223755,139.204071 259.010254,136.748795 262.905029,135.142731 
	C257.811523,142.799393 250.402451,148.541336 243.812027,155.055984 
	C230.585571,168.130356 217.021667,180.863388 203.273499,193.827881 
z"/>
<path fill="#4A0F06" opacity="1.000000" stroke="none" 
	d="
M289.447754,110.067017 
	C291.411285,105.053345 295.233521,101.473915 300.473175,98.935516 
	C297.679138,103.153564 293.819977,106.667007 289.447754,110.067017 
z"/>
<path fill="#480F06" opacity="1.000000" stroke="none" 
	d="
M182.327332,213.935486 
	C183.644363,209.896805 186.828171,207.281036 190.841064,205.154465 
	C189.074722,208.799805 185.880890,211.357574 182.327332,213.935486 
z"/>
<path fill="#480F06" opacity="1.000000" stroke="none" 
	d="
M266.543030,132.146210 
	C266.997284,128.327499 269.635925,126.210106 273.525818,124.939972 
	C272.134705,127.892288 269.412598,129.894455 266.543030,132.146210 
z"/>
<path fill="#480F06" opacity="1.000000" stroke="none" 
	d="
M283.326294,115.944969 
	C282.741974,112.141136 286.010193,111.518654 288.766693,110.100204 
	C288.203918,112.885048 285.736572,114.207352 283.326294,115.944969 
z"/>
<path fill="#480F06" opacity="1.000000" stroke="none" 
	d="
M191.515625,205.123657 
	C191.259003,201.683151 193.228363,199.841965 196.891327,199.221924 
	C196.190063,201.892090 193.856949,203.320435 191.515625,205.123657 
z"/>
<path fill="#480F06" opacity="1.000000" stroke="none" 
	d="
M175.341476,220.678772 
	C174.883896,218.350906 175.903595,217.052597 178.686401,217.022766 
	C178.669113,218.951218 176.926102,219.588486 175.341476,220.678772 
z"/>
<path fill="#480F06" opacity="1.000000" stroke="none" 
	d="
M179.362061,216.998810 
	C179.006546,215.460251 179.763123,214.457092 181.635956,214.010925 
	C181.830872,215.455078 180.857117,216.277466 179.362061,216.998810 
z"/>
<path fill="#4A0F06" opacity="1.000000" stroke="none" 
	d="
M304.310303,95.851570 
	C304.326752,94.302284 304.541138,92.596405 306.996094,92.346107 
	C306.932648,93.961418 305.723602,94.825142 304.310303,95.851570 
z"/>
<path fill="#480F06" opacity="1.000000" stroke="none" 
	d="
M278.301025,120.925873 
	C278.020844,119.405128 278.800293,118.426704 280.648041,118.005913 
	C280.812103,119.450867 279.829407,120.258224 278.301025,120.925873 
z"/>
<path fill="#480F06" opacity="1.000000" stroke="none" 
	d="
M199.582214,197.196045 
	C199.087723,196.127655 199.377716,195.309494 201.055298,195.206451 
	C200.914734,195.872314 200.399567,196.498520 199.582214,197.196045 
z"/>
<path fill="#480F06" opacity="1.000000" stroke="none" 
	d="
M197.570831,199.192261 
	C197.083878,198.192947 197.298950,197.372192 198.907761,197.232254 
	C198.797699,197.893829 198.329773,198.506897 197.570831,199.192261 
z"/>
<path fill="#4A0F06" opacity="1.000000" stroke="none" 
	d="
M302.483215,97.353897 
	C302.236969,96.715096 302.606995,96.255920 303.605103,96.019333 
	C303.541382,96.425179 303.158386,96.851692 302.483215,97.353897 
z"/>
<path fill="#480F06" opacity="1.000000" stroke="none" 
	d="
M264.417603,134.201065 
	C264.322754,133.969910 264.483246,133.635742 264.928162,133.237427 
	C265.032684,133.481537 264.852814,133.789795 264.417603,134.201065 
z"/>
<path fill="#480F06" opacity="1.000000" stroke="none" 
	d="
M265.437500,133.134247 
	C265.344879,132.898834 265.503754,132.585434 265.936523,132.224777 
	C266.036591,132.470444 265.862823,132.763351 265.437500,133.134247 
z"/>
<path fill="#EB5929" opacity="1.000000" stroke="none" 
	d="
M105.262726,103.836060 
	C104.782753,104.570053 104.509972,105.040222 104.120834,105.756332 
	C101.207741,106.055283 102.223801,103.346565 101.203629,102.104401 
	C100.536873,101.292580 99.839996,100.673439 98.737770,100.740662 
	C98.235390,100.771301 97.682648,100.957939 97.560249,101.450417 
	C97.250237,102.697746 98.292892,103.144638 99.080498,103.701721 
	C100.486862,104.696503 102.644318,105.014793 102.217194,107.732880 
	C102.015526,108.007988 102.003159,108.001961 102.007881,108.008743 
	C95.668655,111.269997 89.360962,106.869171 82.973419,107.907547 
	C80.492737,108.310822 78.321449,107.839401 77.529037,111.305946 
	C77.050224,113.400574 75.199509,115.372658 73.563240,111.358017 
	C71.403038,106.057877 68.374474,111.304253 65.384056,110.990311 
	C65.105972,107.140236 67.773735,104.573639 69.848244,101.320450 
	C70.756210,100.319336 70.400017,99.353088 70.806213,98.260948 
	C71.498871,97.427933 71.998627,96.863914 72.736473,96.140823 
	C76.977997,96.209763 75.783340,99.544281 76.437958,101.773087 
	C76.614098,95.222481 81.473030,89.535118 79.969208,82.328171 
	C80.255692,81.497620 80.537849,81.010612 80.946716,80.271500 
	C82.600327,79.235146 84.460617,79.025589 85.733803,77.186157 
	C86.042686,74.409828 88.111504,73.122017 89.700470,71.169708 
	C92.125648,68.749786 94.142250,73.732094 95.882919,71.285423 
	C97.074150,69.611031 95.452362,67.111168 96.374107,65.056366 
	C96.647781,64.446266 97.083961,63.961411 97.760262,63.229088 
	C97.994675,62.980671 98.473366,62.960899 98.712906,62.958244 
	C101.085365,62.215332 102.110359,65.390137 104.407379,64.434570 
	C104.069931,62.137249 101.860748,60.026623 103.745232,57.219242 
	C104.082245,56.640347 104.273048,56.387661 104.753868,56.082436 
	C108.676208,54.702774 109.621773,57.834270 111.547920,60.528713 
	C111.460808,57.559879 108.389893,56.085346 109.758804,53.230011 
	C110.093521,52.651718 110.284134,52.395920 110.765053,52.084160 
	C112.266235,51.648708 112.093048,50.350845 112.813873,49.270432 
	C113.493675,48.749653 113.976738,48.477070 114.714325,48.093292 
	C117.410408,47.267296 120.049057,46.919891 121.775429,44.215866 
	C134.559998,37.835175 146.980820,31.268072 160.874207,28.573776 
	C179.816162,24.900431 198.662369,23.880005 217.788406,28.528749 
	C229.833252,31.456352 241.625336,34.582890 252.793991,40.715111 
	C253.076843,41.314552 253.274246,41.682667 253.184509,41.961269 
	C251.709274,46.541538 253.491440,49.566467 257.350830,52.133900 
	C259.660461,53.670391 260.694977,56.363033 259.516174,59.224678 
	C258.305054,62.164806 257.047180,65.019211 257.646790,68.343597 
	C257.833160,69.376976 257.148987,70.401443 256.124725,70.680519 
	C253.077484,71.510765 250.037369,73.761612 247.202744,73.424553 
	C243.672394,73.004753 242.422211,74.726349 241.071396,76.906921 
	C237.828308,82.142105 231.460403,82.477623 227.056320,85.964561 
	C224.931000,87.647270 223.322281,89.006638 223.279587,91.829269 
	C223.233185,94.896622 221.586594,96.746109 218.568466,97.400261 
	C215.751877,98.010735 213.240219,99.334549 210.993698,101.079994 
	C208.277451,103.190430 205.368042,104.522606 201.844803,104.464767 
	C199.683228,104.429291 197.629135,105.184692 197.557053,107.682274 
	C197.332932,115.449455 191.126678,118.430290 186.102295,122.350716 
	C184.803543,123.364105 182.986725,123.768150 181.889496,124.986755 
	C176.781067,130.660263 170.124985,129.402985 163.707794,129.224930 
	C161.683136,129.168762 160.264404,128.069672 159.536896,126.183327 
	C157.931381,122.020332 154.576920,120.620621 150.478867,120.400223 
	C148.475235,120.292450 146.192627,120.476379 144.734329,119.111046 
	C141.224899,115.825325 137.145432,115.024170 132.297516,115.219589 
	C131.983368,115.019821 131.998123,115.001526 131.988586,115.011871 
	C130.264984,111.416893 126.284599,108.956612 126.947083,104.184898 
	C125.486771,104.697182 124.877922,105.909782 123.289940,106.041809 
	C121.298378,104.003204 118.126030,104.616104 116.274216,102.224876 
	C110.293694,97.472809 108.868988,97.683052 105.262726,103.836060 
z"/>
<path fill="#DED6D5" opacity="1.000000" stroke="none" 
	d="
M300.853577,274.332642 
	C303.092499,275.173492 304.285950,276.356812 303.516907,278.587952 
	C303.003906,280.076172 301.819702,280.487274 300.376038,280.465210 
	C298.626007,280.438507 297.400055,279.434723 297.221588,277.880219 
	C296.972900,275.713989 298.491608,274.658966 300.853577,274.332642 
z"/>
<path fill="#E7582B" opacity="1.000000" stroke="none" 
	d="
M79.716751,82.208282 
	C81.503685,87.025986 83.196083,91.899597 78.317711,96.463646 
	C77.220291,97.490364 78.102722,100.581604 77.974876,102.716522 
	C77.902855,103.919151 78.373283,105.731812 76.337936,105.619209 
	C74.753029,105.531525 75.143585,103.955223 75.004364,102.869286 
	C74.722420,100.670158 75.820053,98.183289 73.315964,96.178024 
	C72.545341,92.120392 75.239548,89.538437 77.016037,86.663956 
	C77.874962,85.274155 78.882233,83.985657 79.716751,82.208282 
z"/>
<path fill="#E7582B" opacity="1.000000" stroke="none" 
	d="
M97.641663,63.020401 
	C97.872116,64.883751 96.396584,66.629417 97.365730,68.663506 
	C98.415970,70.867760 97.804047,73.253860 96.151680,74.335426 
	C94.639038,75.325531 93.707703,72.739906 92.381302,71.942490 
	C91.832581,71.612610 91.241150,71.353760 90.317551,71.017502 
	C92.706436,68.612228 93.506966,64.456665 97.641663,63.020401 
z"/>
<path fill="#E7582B" opacity="1.000000" stroke="none" 
	d="
M103.618706,57.009094 
	C104.176643,58.724800 103.436440,60.727024 104.930878,62.193661 
	C106.111984,63.352791 107.984024,64.328125 106.073776,66.127251 
	C104.544968,67.567123 102.920303,66.059151 101.475288,65.537018 
	C100.666946,65.244934 100.158104,64.123962 99.233376,63.166035 
	C100.363937,60.972679 100.662476,58.173824 103.618706,57.009094 
z"/>
<path fill="#E7582B" opacity="1.000000" stroke="none" 
	d="
M109.628098,52.975601 
	C109.547295,55.645794 112.298264,56.720997 112.966972,58.870693 
	C113.346046,60.089287 114.412544,61.399555 112.864571,62.322384 
	C111.085526,63.382961 109.817001,61.820675 109.520615,60.574532 
	C108.973335,58.273540 107.924240,56.819241 105.302429,56.123566 
	C105.942650,54.311104 107.135620,52.964310 109.628098,52.975601 
z"/>
<path fill="#E7582B" opacity="1.000000" stroke="none" 
	d="
M121.651939,44.021973 
	C121.265633,47.461121 119.559723,49.422012 115.332993,47.993683 
	C114.975853,47.810738 114.982857,47.639374 115.001114,47.210434 
	C117.563751,46.979488 119.103310,44.803024 121.651939,44.021973 
z"/>
<path fill="#E7582B" opacity="1.000000" stroke="none" 
	d="
M112.719208,49.154587 
	C112.978432,50.154301 113.107475,51.321014 112.873489,52.409702 
	C112.577225,53.788151 111.858711,53.947853 111.039948,52.294579 
	C111.010445,50.832882 111.438538,49.908493 112.719208,49.154587 
z"/>
<path fill="#E7582B" opacity="1.000000" stroke="none" 
	d="
M85.617043,76.986694 
	C85.880898,79.715820 83.995262,80.053078 81.447845,80.011932 
	C82.236923,78.684601 83.657494,77.713455 85.617043,76.986694 
z"/>
<path fill="#E7582B" opacity="1.000000" stroke="none" 
	d="
M70.737640,98.200607 
	C70.836678,98.855904 70.674240,99.719841 70.251724,100.793869 
	C70.153160,100.139053 70.314667,99.274155 70.737640,98.200607 
z"/>
<path fill="#EA5528" opacity="1.000000" stroke="none" 
	d="
M132.128647,115.320686 
	C133.117538,114.851303 134.617249,115.083618 135.320358,114.442421 
	C137.880920,112.107285 139.834381,113.050972 141.676636,115.199593 
	C144.132919,118.064392 147.147064,119.128487 150.939224,119.080528 
	C155.463074,119.023308 159.376205,120.460098 160.749878,125.530128 
	C160.953659,126.282227 161.382507,127.122971 161.971069,127.590797 
	C163.292068,128.640823 176.323074,128.168564 177.511444,126.840942 
	C181.565857,122.311371 187.551544,120.509262 191.878296,116.252510 
	C194.312302,113.857887 196.254257,111.731247 195.968521,108.287399 
	C195.667450,104.659164 197.294937,102.691452 200.791580,103.088463 
	C204.812424,103.544998 207.796417,101.874420 210.739120,99.599586 
	C211.913162,98.691994 213.173645,97.595039 214.548004,97.301361 
	C219.721375,96.195923 223.555664,94.279503 222.114441,87.898659 
	C222.014053,87.454224 222.670013,86.389282 223.039810,86.356674 
	C227.602859,85.954399 229.693497,81.127571 234.609421,80.507729 
	C237.854675,80.098549 241.170181,76.480995 242.007217,72.257790 
	C242.382370,70.364929 243.384888,69.040703 244.687500,71.147484 
	C246.242981,73.663261 247.404953,72.766609 249.033386,71.618149 
	C250.256912,70.755249 251.592010,70.066086 253.161011,70.019569 
	C255.713516,69.943901 258.315613,70.179764 255.606018,66.285797 
	C254.571899,64.799660 256.512939,62.900631 257.150879,61.258106 
	C259.198425,55.986252 258.262787,52.487247 253.109848,50.280849 
	C250.056976,48.973663 248.267456,48.288643 251.608765,45.259533 
	C252.392502,44.549004 252.207550,42.769939 252.736450,41.236099 
	C254.019775,41.021885 255.034912,41.054039 256.421021,41.152885 
	C257.191681,43.053471 258.580536,43.929623 260.151611,44.536335 
	C265.390350,46.559441 268.880859,51.134842 273.777161,53.774536 
	C276.321320,55.146160 275.189667,57.747284 272.681946,59.172138 
	C268.892700,61.325157 266.211090,64.539940 264.011383,68.606537 
	C259.392090,70.586098 256.075653,74.359566 253.334244,77.657646 
	C247.571121,84.591019 240.276398,89.738243 234.184967,96.219780 
	C226.644196,104.243477 218.719620,111.911133 210.854507,119.624176 
	C200.590988,129.689270 190.216690,139.641342 179.908478,149.661026 
	C178.614899,150.918427 177.046219,152.032578 176.854416,154.438782 
	C172.886703,157.026108 170.484329,153.847931 167.337051,152.123795 
	C166.907639,151.099838 166.628128,150.338715 165.338867,150.032166 
	C165.011673,149.537216 164.994202,149.101883 164.968994,148.339600 
	C165.023071,147.029678 164.717392,146.300171 163.309998,146.082367 
	C161.875900,145.396149 160.774506,144.728638 159.352631,144.015015 
	C159.420090,140.169235 155.886139,139.093872 153.907700,137.232834 
	C146.475540,130.241699 138.666077,123.650757 132.128647,115.320686 
z"/>
<path fill="#EA5528" opacity="1.000000" stroke="none" 
	d="
M123.104813,106.363571 
	C123.413765,105.611748 123.832924,105.077454 124.364487,104.702538 
	C125.739037,103.733032 125.561829,100.455452 127.993462,101.458076 
	C130.192947,102.364960 127.885757,104.345062 128.035675,105.868713 
	C128.190308,107.440170 128.533722,109.119881 129.954666,109.680038 
	C132.329834,110.616371 131.956650,112.418404 131.986298,114.613113 
	C127.368057,114.009651 126.546745,109.051491 123.104813,106.363571 
z"/>
<path fill="#E7582B" opacity="1.000000" stroke="none" 
	d="
M105.452988,104.078857 
	C105.327164,101.293869 105.248596,97.680519 108.821602,97.524475 
	C111.314117,97.415627 115.194191,96.993256 115.958603,101.642891 
	C112.300133,101.113647 109.379776,104.101143 105.452988,104.078857 
z"/>
<path fill="#E7582B" opacity="1.000000" stroke="none" 
	d="
M102.280869,107.887039 
	C101.805374,105.904518 100.095238,105.530350 98.531624,105.008041 
	C96.686043,104.391541 95.082275,103.401611 95.223946,101.249969 
	C95.346519,99.388573 96.928703,98.940544 98.531769,99.041512 
	C100.787872,99.183601 102.863960,99.643822 103.002075,102.572121 
	C103.047920,103.544075 103.294533,104.506561 103.726913,105.737831 
	C103.518387,106.590218 103.032295,107.178154 102.280869,107.887039 
z"/>
<path fill="#E15B28" opacity="1.000000" stroke="none" 
	d="
M163.106888,146.318176 
	C163.889023,144.863754 165.161865,144.579346 166.237885,145.481781 
	C167.265671,146.343735 166.235703,147.093185 165.257202,147.863586 
	C164.386337,147.532669 163.811401,147.052689 163.106888,146.318176 
z"/>
<path fill="#E7582B" opacity="1.000000" stroke="none" 
	d="
M90.355385,77.474182 
	C93.097244,76.988548 94.745041,78.161674 94.459618,80.479599 
	C94.266121,82.050980 92.519005,83.539841 90.688324,82.627373 
	C88.433220,81.503372 88.536255,79.552139 90.355385,77.474182 
z"/>
<path fill="#E7582B" opacity="1.000000" stroke="none" 
	d="
M120.445984,98.024940 
	C119.647141,99.090721 118.757523,99.145447 117.884254,98.570915 
	C117.424965,98.268745 117.435677,97.721512 117.901588,97.429741 
	C118.785324,96.876320 119.673279,96.927780 120.445984,98.024940 
z"/>
</svg>